<?xml version="1.0" encoding="utf-8"?>
<svg version="1.1" xmlns:xlink="http://www.w3.org/1999/xlink" width="168px" height="142px" xmlns="http://www.w3.org/2000/svg">
  <g transform="matrix(1 0 0 1 -33 -417 )">
    <path d="M 33 417  L 201 417  L 201 559  L 33 559  L 33 417  " fill-rule="nonzero" fill="#cccccc" stroke="none" />
    <path d="M 43 427  L 191 427  L 191 549  L 43 549  L 43 427  " fill-rule="nonzero" fill="#ffffff" stroke="none" />
    <path d="M 131.01 459.6  C 125.046 459.6  120.36 454.914  120.36 448.95  C 120.36 442.986  125.046 438.3  131.01 438.3  C 136.974 438.3  141.66 442.986  141.66 448.95  C 141.66 454.914  136.974 459.6  131.01 459.6  " fill-rule="nonzero" fill="#cccccc" stroke="none" />
    <path d="M 47 546  L 47 482.75  L 82.25 454  L 131.6 487.678571428571  L 159.8 471.25  L 188 487.678571428571  L 188 546  L 47 546  " fill-rule="nonzero" fill="#169bd5" stroke="none" />
  </g>
</svg>